<svg width="48" height="48" viewBox="0 0 48 48" fill="none" xmlns="http://www.w3.org/2000/svg">
<path d="M26 22.3H14" stroke="#DA3235" stroke-width="4" stroke-linecap="round" stroke-linejoin="round"/>
<path d="M4 22.3V13.0601C4 8.98006 7.3 5.68005 11.38 5.68005H22.62C26.7 5.68005 30 8.22005 30 12.3" stroke="#DA3235" stroke-width="4" stroke-linecap="round" stroke-linejoin="round"/>
<path d="M34.96 24.4C33.96 25.36 33.48 26.84 33.88 28.36C34.38 30.22 36.22 31.4 38.14 31.4H40V34.3C40 38.72 36.42 42.3 32 42.3H12C7.58 42.3 4 38.72 4 34.3V20.3C4 15.88 7.58 12.3 12 12.3H32C36.4 12.3 40 15.9 40 20.3V23.2H37.84C36.72 23.2 35.7 23.64 34.96 24.4Z" stroke="#DA3235" stroke-width="4" stroke-linecap="round" stroke-linejoin="round"/>
<path d="M44.0004 25.24V29.36C44.0004 30.48 43.0804 31.4 41.9404 31.4H38.0804C35.9204 31.4 33.9404 29.82 33.7604 27.66C33.6404 26.4 34.1204 25.22 34.9604 24.4C35.7004 23.64 36.7204 23.2 37.8404 23.2H41.9404C43.0804 23.2 44.0004 24.12 44.0004 25.24Z" stroke="#DA3235" stroke-width="4" stroke-linecap="round" stroke-linejoin="round"/>
</svg>
